<svg width="1200" height="800" viewBox="0 0 1200 800" xmlns="http://www.w3.org/2000/svg">
  <defs>
    <linearGradient id="skyGrad" x1="0%" y1="0%" x2="0%" y2="100%">
      <stop offset="0%" style="stop-color:#dbeafe;stop-opacity:1" />
      <stop offset="100%" style="stop-color:#e0f2fe;stop-opacity:1" />
    </linearGradient>
    <linearGradient id="landGrad" x1="0%" y1="0%" x2="100%" y2="100%">
      <stop offset="0%" style="stop-color:#22c55e;stop-opacity:0.8" />
      <stop offset="50%" style="stop-color:#16a34a;stop-opacity:0.9" />
      <stop offset="100%" style="stop-color:#15803d;stop-opacity:0.85" />
    </linearGradient>
  </defs>
  
  <!-- Sky background -->
  <rect width="1200" height="800" fill="url(#skyGrad)"/>
  
  <!-- Abstract map patches -->
  <g opacity="0.9">
    <!-- Large central patch -->
    <path d="M 300,200 Q 400,180 500,200 L 550,350 Q 520,400 450,420 L 350,380 Q 280,320 300,200 Z" 
          fill="url(#landGrad)" stroke="#15803d" stroke-width="2"/>
    
    <!-- Right patch -->
    <path d="M 700,250 Q 800,240 850,280 L 900,450 Q 870,500 800,520 L 720,480 Q 680,380 700,250 Z" 
          fill="#84cc16" opacity="0.85" stroke="#65a30d" stroke-width="2"/>
    
    <!-- Bottom left patch -->
    <path d="M 150,500 Q 200,480 280,500 L 300,620 Q 270,650 220,660 L 160,630 Q 130,570 150,500 Z" 
          fill="#10b981" opacity="0.8" stroke="#059669" stroke-width="2"/>
  </g>
  
  <!-- Organic overlay shapes -->
  <g opacity="0.3">
    <ellipse cx="400" cy="300" rx="100" ry="120" fill="#4ade80"/>
    <ellipse cx="750" cy="350" rx="80" ry="100" fill="#86efac"/>
    <ellipse cx="200" cy="550" rx="60" ry="80" fill="#22d3ee"/>
  </g>
  
  <!-- Grid overlay -->
  <g opacity="0.15" stroke="#15803d" stroke-width="1">
    <line x1="0" y1="200" x2="1200" y2="200"/>
    <line x1="0" y1="400" x2="1200" y2="400"/>
    <line x1="0" y1="600" x2="1200" y2="600"/>
    <line x1="300" y1="0" x2="300" y2="800"/>
    <line x1="600" y1="0" x2="600" y2="800"/>
    <line x1="900" y1="0" x2="900" y2="800"/>
  </g>
  
  <!-- Data markers -->
  <g opacity="0.7">
    <circle cx="400" cy="300" r="8" fill="#22c55e" stroke="#ffffff" stroke-width="2"/>
    <circle cx="750" cy="350" r="8" fill="#84cc16" stroke="#ffffff" stroke-width="2"/>
    <circle cx="220" cy="560" r="8" fill="#10b981" stroke="#ffffff" stroke-width="2"/>
  </g>
  
  <!-- Title -->
  <text x="600" y="720" font-family="Arial, sans-serif" font-size="48" font-weight="bold" 
        fill="#15803d" text-anchor="middle" opacity="0.8">
    AirSwap Growth Platform
  </text>
</svg>